<svg width="32" height="32" viewBox="0 0 32 32" fill="none" xmlns="http://www.w3.org/2000/svg">
<path d="M16.667 1.33301C24.3987 1.33318 30.6668 7.60128 30.667 15.333C30.667 23.0649 24.3988 29.3328 16.667 29.333C8.93501 29.333 2.66699 23.065 2.66699 15.333C2.66717 7.60117 8.93511 1.33301 16.667 1.33301ZM20.8877 11.2959C20.3277 13.2799 18.6639 15.08 17.0879 15.248V11.3037H14.5039V18.2158C12.904 17.8156 10.8878 15.8794 10.7998 11.3037H8.04785C8.17585 17.5437 11.2966 21.2881 16.7686 21.2881H17.0879V17.7197C19.0959 17.9197 20.6166 19.3921 21.2246 21.2881H24.0645C23.7733 20.2106 23.2563 19.207 22.5488 18.3438C21.8414 17.4806 20.9591 16.7774 19.96 16.2803C20.8551 15.735 21.6286 15.0108 22.2314 14.1533C22.8343 13.2958 23.2537 12.3229 23.4639 11.2959H20.8877Z" fill="#0059FF"/>
</svg>
