<svg width="32" height="32" viewBox="0 0 32 32" fill="none" xmlns="http://www.w3.org/2000/svg">
<path d="M15.9998 2.66669C8.63984 2.66669 2.6665 8.64002 2.6665 16C2.6665 23.36 8.63984 29.3334 15.9998 29.3334C23.3598 29.3334 29.3332 23.36 29.3332 16C29.3332 8.64002 23.3598 2.66669 15.9998 2.66669ZM22.1865 11.7334C21.9865 13.84 21.1198 18.96 20.6798 21.32C20.4932 22.32 20.1198 22.6534 19.7732 22.6934C18.9998 22.76 18.4132 22.1867 17.6665 21.6934C16.4932 20.92 15.8265 20.44 14.6932 19.6934C13.3732 18.8267 14.2265 18.3467 14.9865 17.5734C15.1865 17.3734 18.5998 14.2667 18.6665 13.9867C18.6758 13.9443 18.6745 13.9002 18.6629 13.8584C18.6513 13.8166 18.6296 13.7782 18.5998 13.7467C18.5198 13.68 18.4132 13.7067 18.3198 13.72C18.1998 13.7467 16.3332 14.9867 12.6932 17.44C12.1598 17.8 11.6798 17.9867 11.2532 17.9734C10.7732 17.96 9.8665 17.7067 9.1865 17.48C8.3465 17.2134 7.69317 17.0667 7.7465 16.6C7.77317 16.36 8.1065 16.12 8.73317 15.8667C12.6265 14.1734 15.2132 13.0534 16.5065 12.52C20.2132 10.9734 20.9732 10.7067 21.4798 10.7067C21.5865 10.7067 21.8398 10.7334 21.9998 10.8667C22.1332 10.9734 22.1732 11.12 22.1865 11.2267C22.1732 11.3067 22.1998 11.5467 22.1865 11.7334Z" fill="#0059FF"/>
</svg>
