<svg width="20" height="20" viewBox="0 0 20 20" fill="none" xmlns="http://www.w3.org/2000/svg">
<path d="M6.58341 16.6667C8.1739 17.4825 10.0035 17.7035 11.7425 17.2898C13.4815 16.8761 15.0155 15.8549 16.0682 14.4101C17.1209 12.9654 17.6229 11.1923 17.4839 9.41013C17.3449 7.62801 16.5739 5.95414 15.3099 4.69016C14.0459 3.42618 12.3721 2.65521 10.5899 2.51618C8.80782 2.37715 7.03464 2.8792 5.58993 3.93187C4.14522 4.98454 3.12399 6.51859 2.71027 8.25759C2.29654 9.99659 2.51753 11.8262 3.33341 13.4167L1.66675 18.3333L6.58341 16.6667Z" stroke="#0059FF" stroke-width="2" stroke-linecap="round" stroke-linejoin="round"/>
<path d="M7.57495 7.5C7.77087 6.94306 8.15758 6.47342 8.66658 6.17428C9.17558 5.87513 9.77403 5.76578 10.3559 5.86559C10.9378 5.96541 11.4656 6.26794 11.8458 6.71961C12.2261 7.17128 12.4342 7.74294 12.4333 8.33334C12.4333 10 9.93328 10.8333 9.93328 10.8333" stroke="#0059FF" stroke-width="2" stroke-linecap="round" stroke-linejoin="round"/>
<path d="M10 14.1667H10.0083" stroke="#0059FF" stroke-width="2" stroke-linecap="round" stroke-linejoin="round"/>
</svg>
